<mxfile host="app.diagrams.net" modified="2024-07-01T03:41:52.429Z" agent="Mozilla/5.0 (Windows NT 10.0; Win64; x64) AppleWebKit/537.36 (KHTML, like Gecko) Chrome/126.0.0.0 Safari/537.36" etag="ZgLmoxIseF3zL6HTIp8V" version="24.6.4" type="device">
  <diagram name="Page-1" id="huhRIpAm3bDRnNeTqgfH">
    <mxGraphModel dx="1050" dy="1683" grid="1" gridSize="10" guides="1" tooltips="1" connect="1" arrows="1" fold="1" page="1" pageScale="1" pageWidth="850" pageHeight="1100" math="0" shadow="0">
      <root>
        <mxCell id="0" />
        <mxCell id="1" parent="0" />
        <mxCell id="JiKG6f25SsfxNfvE5poe-1" value="" style="rounded=0;whiteSpace=wrap;html=1;fillColor=#f5f5f5;strokeColor=#666666;fontColor=#333333;" vertex="1" parent="1">
          <mxGeometry x="120" y="-40" width="560" height="370" as="geometry" />
        </mxCell>
        <mxCell id="JiKG6f25SsfxNfvE5poe-6" style="edgeStyle=orthogonalEdgeStyle;rounded=0;orthogonalLoop=1;jettySize=auto;html=1;" edge="1" parent="1" source="JiKG6f25SsfxNfvE5poe-2" target="JiKG6f25SsfxNfvE5poe-4">
          <mxGeometry relative="1" as="geometry" />
        </mxCell>
        <mxCell id="JiKG6f25SsfxNfvE5poe-2" value="Amazon EKS" style="sketch=0;outlineConnect=0;fontColor=#232F3E;gradientColor=none;strokeColor=#ffffff;fillColor=#232F3E;dashed=0;verticalLabelPosition=middle;verticalAlign=bottom;align=center;html=1;whiteSpace=wrap;fontSize=10;fontStyle=1;spacing=3;shape=mxgraph.aws4.productIcon;prIcon=mxgraph.aws4.eks;" vertex="1" parent="1">
          <mxGeometry x="210" y="40" width="80" height="100" as="geometry" />
        </mxCell>
        <mxCell id="JiKG6f25SsfxNfvE5poe-3" value="" style="outlineConnect=0;dashed=0;verticalLabelPosition=bottom;verticalAlign=top;align=center;html=1;shape=mxgraph.aws3.ec2;fillColor=#F58534;gradientColor=none;" vertex="1" parent="1">
          <mxGeometry x="425" y="-30" width="60" height="70" as="geometry" />
        </mxCell>
        <mxCell id="JiKG6f25SsfxNfvE5poe-4" value="" style="outlineConnect=0;dashed=0;verticalLabelPosition=bottom;verticalAlign=top;align=center;html=1;shape=mxgraph.aws3.ec2;fillColor=#F58534;gradientColor=none;" vertex="1" parent="1">
          <mxGeometry x="425" y="55" width="60" height="70" as="geometry" />
        </mxCell>
        <mxCell id="JiKG6f25SsfxNfvE5poe-5" value="" style="outlineConnect=0;dashed=0;verticalLabelPosition=bottom;verticalAlign=top;align=center;html=1;shape=mxgraph.aws3.ec2;fillColor=#F58534;gradientColor=none;" vertex="1" parent="1">
          <mxGeometry x="425" y="150" width="60" height="70" as="geometry" />
        </mxCell>
        <mxCell id="JiKG6f25SsfxNfvE5poe-7" style="edgeStyle=orthogonalEdgeStyle;rounded=0;orthogonalLoop=1;jettySize=auto;html=1;entryX=0;entryY=0.5;entryDx=0;entryDy=0;entryPerimeter=0;" edge="1" parent="1" source="JiKG6f25SsfxNfvE5poe-2" target="JiKG6f25SsfxNfvE5poe-3">
          <mxGeometry relative="1" as="geometry" />
        </mxCell>
        <mxCell id="JiKG6f25SsfxNfvE5poe-8" style="edgeStyle=orthogonalEdgeStyle;rounded=0;orthogonalLoop=1;jettySize=auto;html=1;entryX=0;entryY=0.5;entryDx=0;entryDy=0;entryPerimeter=0;" edge="1" parent="1" source="JiKG6f25SsfxNfvE5poe-2" target="JiKG6f25SsfxNfvE5poe-5">
          <mxGeometry relative="1" as="geometry" />
        </mxCell>
        <mxCell id="JiKG6f25SsfxNfvE5poe-9" value="&lt;b&gt;EBS&lt;/b&gt;" style="shape=cylinder3;whiteSpace=wrap;html=1;boundedLbl=1;backgroundOutline=1;size=15;fillColor=#f8cecc;strokeColor=#b85450;" vertex="1" parent="1">
          <mxGeometry x="345" y="430" width="110" height="120" as="geometry" />
        </mxCell>
        <mxCell id="JiKG6f25SsfxNfvE5poe-10" style="edgeStyle=orthogonalEdgeStyle;rounded=0;orthogonalLoop=1;jettySize=auto;html=1;entryX=0.5;entryY=0;entryDx=0;entryDy=0;entryPerimeter=0;exitX=0.5;exitY=1;exitDx=0;exitDy=0;exitPerimeter=0;" edge="1" parent="1" source="JiKG6f25SsfxNfvE5poe-17" target="JiKG6f25SsfxNfvE5poe-9">
          <mxGeometry relative="1" as="geometry" />
        </mxCell>
        <mxCell id="JiKG6f25SsfxNfvE5poe-13" value="&lt;b&gt;us-east-1c&lt;/b&gt;" style="text;html=1;align=center;verticalAlign=middle;resizable=0;points=[];autosize=1;strokeColor=none;fillColor=none;" vertex="1" parent="1">
          <mxGeometry x="500" y="170" width="80" height="30" as="geometry" />
        </mxCell>
        <mxCell id="JiKG6f25SsfxNfvE5poe-14" value="&lt;b&gt;us-east-1b&lt;/b&gt;" style="text;html=1;align=center;verticalAlign=middle;resizable=0;points=[];autosize=1;strokeColor=none;fillColor=none;" vertex="1" parent="1">
          <mxGeometry x="500" y="68" width="80" height="30" as="geometry" />
        </mxCell>
        <mxCell id="JiKG6f25SsfxNfvE5poe-15" value="&lt;b&gt;us-east-1a&lt;/b&gt;" style="text;html=1;align=center;verticalAlign=middle;resizable=0;points=[];autosize=1;strokeColor=none;fillColor=none;" vertex="1" parent="1">
          <mxGeometry x="500" y="-10" width="80" height="30" as="geometry" />
        </mxCell>
        <mxCell id="JiKG6f25SsfxNfvE5poe-16" value="&lt;b&gt;us-east-1c&lt;/b&gt;" style="text;html=1;align=center;verticalAlign=middle;resizable=0;points=[];autosize=1;strokeColor=none;fillColor=none;" vertex="1" parent="1">
          <mxGeometry x="470" y="470" width="80" height="30" as="geometry" />
        </mxCell>
        <mxCell id="JiKG6f25SsfxNfvE5poe-17" value="" style="aspect=fixed;sketch=0;html=1;dashed=0;whitespace=wrap;verticalLabelPosition=bottom;verticalAlign=top;fillColor=#2875E2;strokeColor=#ffffff;points=[[0.005,0.63,0],[0.1,0.2,0],[0.9,0.2,0],[0.5,0,0],[0.995,0.63,0],[0.72,0.99,0],[0.5,1,0],[0.28,0.99,0]];shape=mxgraph.kubernetes.icon2;prIcon=pv" vertex="1" parent="1">
          <mxGeometry x="368.75" y="230" width="62.5" height="60" as="geometry" />
        </mxCell>
        <mxCell id="JiKG6f25SsfxNfvE5poe-22" value="&lt;b&gt;PV&lt;/b&gt;" style="text;html=1;align=center;verticalAlign=middle;resizable=0;points=[];autosize=1;strokeColor=none;fillColor=none;" vertex="1" parent="1">
          <mxGeometry x="420" y="280" width="40" height="30" as="geometry" />
        </mxCell>
        <mxCell id="JiKG6f25SsfxNfvE5poe-23" value="" style="aspect=fixed;sketch=0;html=1;dashed=0;whitespace=wrap;verticalLabelPosition=bottom;verticalAlign=top;fillColor=#2875E2;strokeColor=#ffffff;points=[[0.005,0.63,0],[0.1,0.2,0],[0.9,0.2,0],[0.5,0,0],[0.995,0.63,0],[0.72,0.99,0],[0.5,1,0],[0.28,0.99,0]];shape=mxgraph.kubernetes.icon2;kubernetesLabel=1;prIcon=pvc" vertex="1" parent="1">
          <mxGeometry x="270" y="235" width="52.08" height="50" as="geometry" />
        </mxCell>
        <mxCell id="JiKG6f25SsfxNfvE5poe-24" style="edgeStyle=orthogonalEdgeStyle;rounded=0;orthogonalLoop=1;jettySize=auto;html=1;entryX=0.071;entryY=0.533;entryDx=0;entryDy=0;entryPerimeter=0;" edge="1" parent="1" source="JiKG6f25SsfxNfvE5poe-23" target="JiKG6f25SsfxNfvE5poe-17">
          <mxGeometry relative="1" as="geometry" />
        </mxCell>
        <mxCell id="JiKG6f25SsfxNfvE5poe-26" style="edgeStyle=orthogonalEdgeStyle;rounded=0;orthogonalLoop=1;jettySize=auto;html=1;" edge="1" parent="1" source="JiKG6f25SsfxNfvE5poe-25" target="JiKG6f25SsfxNfvE5poe-23">
          <mxGeometry relative="1" as="geometry" />
        </mxCell>
        <mxCell id="JiKG6f25SsfxNfvE5poe-25" value="" style="aspect=fixed;sketch=0;html=1;dashed=0;whitespace=wrap;verticalLabelPosition=bottom;verticalAlign=top;fillColor=#2875E2;strokeColor=#ffffff;points=[[0.005,0.63,0],[0.1,0.2,0],[0.9,0.2,0],[0.5,0,0],[0.995,0.63,0],[0.72,0.99,0],[0.5,1,0],[0.28,0.99,0]];shape=mxgraph.kubernetes.icon2;prIcon=pod" vertex="1" parent="1">
          <mxGeometry x="180" y="236" width="50" height="48" as="geometry" />
        </mxCell>
        <mxCell id="JiKG6f25SsfxNfvE5poe-27" value="&lt;b&gt;Pod&lt;/b&gt;" style="text;html=1;align=center;verticalAlign=middle;resizable=0;points=[];autosize=1;strokeColor=none;fillColor=none;" vertex="1" parent="1">
          <mxGeometry x="180" y="285" width="50" height="30" as="geometry" />
        </mxCell>
        <mxCell id="JiKG6f25SsfxNfvE5poe-28" value="&lt;b&gt;PVC&lt;/b&gt;" style="text;html=1;align=center;verticalAlign=middle;resizable=0;points=[];autosize=1;strokeColor=none;fillColor=none;" vertex="1" parent="1">
          <mxGeometry x="270" y="284" width="50" height="30" as="geometry" />
        </mxCell>
      </root>
    </mxGraphModel>
  </diagram>
</mxfile>
